<svg id="visual" viewBox="0 0 1920 1080" width="1920" height="1080" xmlns="http://www.w3.org/2000/svg" xmlns:xlink="http://www.w3.org/1999/xlink" version="1.1"><path d="M0 141L240 152L480 174L720 206L960 228L1200 195L1440 195L1680 217L1920 249L1920 0L1680 0L1440 0L1200 0L960 0L720 0L480 0L240 0L0 0Z" fill="#ebeed2"></path><path d="M0 563L240 476L480 509L720 552L960 584L1200 455L1440 433L1680 422L1920 552L1920 247L1680 215L1440 193L1200 193L960 226L720 204L480 172L240 150L0 139Z" fill="#d7cfba"></path><path d="M0 660L240 617L480 660L720 703L960 735L1200 584L1440 617L1680 606L1920 681L1920 550L1680 420L1440 431L1200 453L960 582L720 550L480 507L240 474L0 561Z" fill="#beb2a5"></path><path d="M0 919L240 951L480 973L720 962L960 930L1200 973L1440 995L1680 930L1920 973L1920 679L1680 604L1440 615L1200 582L960 733L720 701L480 658L240 615L0 658Z" fill="#a29791"></path><path d="M0 1081L240 1081L480 1081L720 1081L960 1081L1200 1081L1440 1081L1680 1081L1920 1081L1920 971L1680 928L1440 993L1200 971L960 928L720 960L480 971L240 949L0 917Z" fill="#837e7d"></path></svg>